<?xml version="1.0" encoding="UTF-8" standalone="no"?>
<svg id="svg1448" xmlns:rdf="http://www.w3.org/1999/02/22-rdf-syntax-ns#" xmlns="http://www.w3.org/2000/svg" height="96" width="96" version="1.1" xmlns:cc="http://creativecommons.org/ns#" xmlns:xlink="http://www.w3.org/1999/xlink" xmlns:dc="http://purl.org/dc/elements/1.1/">
 <metadata id="metadata1545">
  <rdf:RDF>
   <cc:Work rdf:about="">
    <dc:format>image/svg+xml</dc:format>
    <dc:type rdf:resource="http://purl.org/dc/dcmitype/StillImage"/>
   </cc:Work>
  </rdf:RDF>
 </metadata>
 <defs id="defs1450">
  <clipPath id="clipPath6135">
   <path id="path1453" d="m46.25 77.281c-3.1147 1.8786-5.2188 5.2849-5.2188 9.1875 0 5.9276 4.8224 10.75 10.75 10.75s10.719-4.8224 10.719-10.75c0-1.2418-0.2058-2.4218-0.59375-3.5312-4.878-2.435-10.35-4.343-15.656-5.657z"/>
  </clipPath>
  <filter id="filter3756" color-interpolation-filters="sRGB">
   <feGaussianBlur id="feGaussianBlur1456" stdDeviation="0.63549"/>
  </filter>
  <linearGradient id="linearGradient20209" y2="69.62" gradientUnits="userSpaceOnUse" y1="62.96" gradientTransform="matrix(1.227 0 0 1.227 -12.615 935.04)" x2="69.13" x1="39.12">
   <stop id="stop1459" stop-color="#d35f5f" offset="0"/>
   <stop id="stop1461" stop-color="#d35f5f" stop-opacity="0" offset="1"/>
  </linearGradient>
  <linearGradient id="linearGradient20216" y2="66.38" gradientUnits="userSpaceOnUse" y1="64.777" gradientTransform="matrix(1.227,0,0,1.227,-12.615,-21.32)" x2="73.64" x1="70.6">
   <stop id="stop1464" stop-color="#eaac96" offset="0"/>
   <stop id="stop1466" stop-color="#db6f49" offset="1"/>
  </linearGradient>
  <radialGradient id="radialGradient20222" cx="51.77" gradientUnits="userSpaceOnUse" cy="56.48" r="10.733" gradientTransform="matrix(.53411 0 0 .53411 23.257 17.82)">
   <stop id="stop1469" offset="0"/>
   <stop id="stop1471" stop-opacity=".903" offset=".86"/>
   <stop id="stop1473" stop-opacity=".089" offset="1"/>
  </radialGradient>
  <radialGradient id="radialGradient20228" cx="50.771" gradientUnits="userSpaceOnUse" cy="77.77" r="22.413" gradientTransform="matrix(2.2049 .59081 -.27437 1.024 -40.928 908.95)">
   <stop id="stop1476" stop-color="#fff" stop-opacity="0" offset="0"/>
   <stop id="stop1478" stop-color="#fff" stop-opacity=".498" offset=".5"/>
   <stop id="stop1480" offset="1"/>
  </radialGradient>
  <radialGradient id="radialGradient20231" cx="51.766" gradientUnits="userSpaceOnUse" cy="56.29" r="10.734" gradientTransform="matrix(1.1454,0,0,1.1395,-8.388,-16.3)">
   <stop id="stop1483" stop-color="#b7dde5" offset="0"/>
   <stop id="stop1485" stop-color="#357099" offset=".89"/>
   <stop id="stop1487" stop-color="#2e4d6a" offset="1"/>
  </radialGradient>
  <radialGradient id="radialGradient20250" cx="47.03" gradientUnits="userSpaceOnUse" cy="28.844" r="30.11" gradientTransform="matrix(1 .30246 -.12745 .42139 -192.24 940.33)">
   <stop id="stop1490" offset="0"/>
   <stop id="stop1492" stop-opacity=".702" offset=".5"/>
   <stop id="stop1494" stop-opacity="0" offset="1"/>
  </radialGradient>
  <linearGradient id="linearGradient20255" gradientUnits="userSpaceOnUse" y1="90" gradientTransform="matrix(1.125,0,0,1.0756,-5.981,-3.412)" x2="0" y2="5.988">
   <stop id="stop1497" stop-color="#d89a6d" offset="0"/>
   <stop id="stop1499" stop-color="#fed4be" offset="1"/>
  </linearGradient>
  <path id="SVGCleanerId_0" d="m22.4 990.55c3.7184 15.338 11.097 26.983 29.186 28.682 12.669 1.1899 24.654-1.3363 25.816-2.8082 0 0-0.77467-7.7466-7.7467-13.014-34.241-17.49-47.255-12.85-47.255-12.85z"/>
  <path id="SVGCleanerId_1" d="m23.275 990.11c-1.7551 0.1622-2.5691 0.46013-2.5691 0.46013 3.7184 15.338 11.245 27.903 29.333 29.602 12.669 1.19 27.136-1.4806 28.298-2.9524 0 0-0.17728-0.3748-0.23007-0.4985-4.8873 1.3737-15.828 2.8471-25.729 1.9172-17.645-1.6572-25.251-13.703-29.065-28.528-0.011 0.001-0.0271-0.001-0.0384 0z" fill="url(#linearGradient20209)"/>
  <linearGradient id="linearGradient14237" y2="96.54" gradientUnits="userSpaceOnUse" x2="50.708" y1="81.682" x1="50.708">
   <stop id="stop14233" offset="0"/>
   <stop id="stop14235" style="stop-opacity:0" offset="1"/>
  </linearGradient>
  <linearGradient id="linearGradient14245" y2="76.72" gradientUnits="userSpaceOnUse" x2="49.877" y1="87.938" x1="49.877">
   <stop id="stop14241" style="stop-color:#fff" offset="0"/>
   <stop id="stop14243" style="stop-color:#fff;stop-opacity:0" offset="1"/>
  </linearGradient>
 </defs>
 <rect id="rect1505" style="fill-opacity:0.02" rx="12.724" height="89.98" width="89.62" y="2.99" x="3.353"/>
 <rect id="rect1507" style="fill-opacity:0.039" rx="12.552" height="88.76" width="88.41" y="3.6" x="3.959"/>
 <rect id="rect1509" style="fill-opacity:.078" rx="12.38" height="87.55" width="87.2" y="4.21" x="4.564"/>
 <rect id="rect1511" style="fill-opacity:0.157" rx="12.208" height="86.33" width="85.991" y="4.82" x="5.17"/>
 <path id="path1513" d="m17.75 5.4062c-6.642 0-11.969 5.3948-11.969 12.063l0.0002 61.031c0 6.668 5.3268 12.031 11.969 12.031h60.812c6.642 0 11.969-5.363 11.969-12.031v-61.031c0-6.668-5.327-12.063-11.969-12.063l-60.812 0.0002z" style="fill:url(#linearGradient20255)"/>
 <use id="use1519" style="fill:#ffffff" xlink:href="#SVGCleanerId_0" transform="translate(0,-956.36)" height="100%" width="100%" y="0" x="0"/>
 <path id="path1521" d="m44.134 36.7c-3.8218 2.305-6.4035 6.4846-6.4035 11.273 0 7.2733 5.9171 13.19 13.19 13.19 7.2732 0 13.152-5.9171 13.152-13.19 0-1.5237-0.25251-2.9715-0.72853-4.3328-5.9863-2.9872-12.699-5.3284-19.21-6.9403z" style="fill:url(#radialGradient20231)"/>
 <use id="use1523" style="opacity:.3;fill:url(#radialGradient20228)" xlink:href="#SVGCleanerId_0" transform="translate(0,-956.36)" height="100%" width="100%" y="0" x="0"/>
 <g id="g1525" clip-path="url(#clipPath6135)" transform="matrix(1.227,0,0,1.227,-12.615,-58.13)">
  <path id="path1527" d="m55.967 96.892c-0.09433-1.073-0.3328-1.974-0.83521-3.1581-1.1879-2.1193-2.1854-4.1385-3.1288-6.5376 0.2721-1.1732 0.4682 0.76601 0.22699 1.3612 0.23617 2.6676-0.1612 6.0393 0.24617 8.6749 0.60986 1.1868 0.80799-0.66758 0.52461-1.1857-0.31007-3.1704-0.69267-6.0503-0.99449-9.0094 0.42428-1.3871-0.02452 1.2254-0.36308 1.4171-0.60094 2.5895-1.7385 5.608-2.0865 8.4837 0.05497 0.9855 0.42739-0.68846 0.37178-1.2899 0.78654-2.8482 1.1497-6.1515 1.7338-9 0.67771-1.1576-0.08018 1.159-0.41729 1.6447-1.5453 2.2345-3.4634 5.1764-4.7717 7.5047-0.46105 1.184 0.94947-0.22227 1.0586-0.81746 1.2659-2.7414 2.3027-5.5209 3.7548-8.2261 1.2669-0.71698-0.43005 1.3245-0.64739 1.4732-2.0405 1.6895-4.6878 3.3195-6.5647 5.4977-0.48286 0.85875 1.1035-0.20798 1.2899-0.7513 2.0732-2.26 4.0812-4.2537 6.1565-6.2102 1.0386-0.35628-0.75713 1.0954-1.3473 0.99238-2.4391 1.0328-5.4463 1.5395-7.7946 2.9861-0.68017 0.74456 0.91167-0.09587 1.2069-0.16414 2.8699-1.3543 5.0498-3.3059 7.6921-4.3275 1.183 0.17952-1.0519 0.82782-1.2941 0.69236-2.909 0.1533-5.9441 0.47763-8.8901 0.87953-0.94193 0.66418 1.1565 0.51447 1.6312 0.17477 3.1487-0.57425 5.5865-1.3678 8.7468-1.6221 1.1612 0.5724-1.3826 0.13362-1.5951-0.1791-2.6248-0.40022-6.0709-1.1922-8.698-1.4994-1.3311 0.30011 0.79882 0.63706 1.365 0.70322 2.8958 0.20852 5.9103 0.07303 8.6916 0.73774 1.2042 0.59108-1.0475-0.23836-1.2237-0.41483-2.7159-1.307-5.0413-3.0283-7.8102-4.0341-1.0532-0.01971 0.69292 0.81471 1.23 0.74043 2.755 1.055 5.4406 2.0862 7.9546 3.6311 0.88313 1.2014-0.74541-0.56949-1.0873-1.1126-2.0664-1.8014-4.3442-4.0689-6.3167-5.9194-0.87836-0.5666 0.21213 0.83927 0.71472 0.88155 2.0624 2.0807 4.6387 3.5117 6.94 5.7379 0.27583 1.1461-1.0151-0.21873-1.0524-0.85897-1.2317-2.3394-2.34-5.5362-3.6928-7.8408-0.93442-0.618-0.65008 1.0174-0.16782 1.2416 1.737 2.6246 3.4554 5.0553 5.0482 7.7674 0.13598 1.4803-0.87394-0.93444-0.75732-1.5709-0.34704-2.7742-0.76433-6.0458-1.3259-8.7131-0.4022-1.0833-0.39731 0.71949-0.21499 1.2749 0.5372 2.9072 2.0677 5.7364 2.4432 8.6894-0.18569 1.0885-0.52861-0.95224-0.2518-1.5394 0.31755-2.627 1.1054-5.5778 1.2097-8.222-0.08732-1.0656-0.50782 0.83098-0.32345 1.0571 0.0126 2.8869 0.1788 6.0245-0.14189 8.8074-0.6581 0.91881 0.02511-1.167 0.18351-1.36 1.2901-2.7086 2.7702-5.5045 3.6118-8.0216-0.10956-1.1542-0.86635 0.44466-0.86175 1.0458-1.1401 2.6589-1.7247 6.1297-2.8833 8.6992-0.83499 0.71283 0.63596-1.2311 0.83173-1.5219 2.0004-2.0699 3.8152-3.8503 5.5169-6.352 0.23299-1.1244-1.1634 0.3977-1.156 0.65987-1.8151 2.1774-3.2459 5.2195-5.1092 7.3141-1.0988 0.74204 0.80942-1.3676 1.0659-1.5594 2.3388-1.3327 4.6504-2.6564 7.0956-4.245 0.67337-0.74074-0.8298-0.2252-1.2266 0.23296-2.4302 1.9433-4.2018 4.0342-6.7969 5.449-1.4799 0.20251 0.88373-0.38782 1.1894-0.49912 2.8581-0.59152 5.9916-1.5969 8.5836-2.3787 0.81635-0.77737-1.2892-0.34377-1.6395 0.07773-3.0401 0.91383-5.4077 1.9452-8.3291 2.9284-1.4727-0.17089 1.5857-0.43608 1.8121-0.33099 2.8059 0.27834 5.4314 0.48668 8.4617 0.40368 1.0753-0.54311-0.84166-0.3467-1.1033-0.38924-3.113-0.1004-6.189 0.91514-8.9906 0.79633-0.97134-0.63678 0.99188-0.40839 1.5433-0.15688 2.4939 0.92188 5.1893 2.4387 7.8592 2.99 1.0438-0.13356-0.8639-0.65023-1.074-0.62168-2.7482-0.6722-5.7922-1.3183-8.7365-2.1266-0.87381-1.0673 1.453 0.24584 1.5172 0.67375 2.2399 1.8538 4.5747 3.759 7.1443 5.1377 1.017 0.513-0.64729-0.94352-1.0329-1.2729-2.6968-1.6697-5.1014-2.6768-7.5641-4.2603-0.46086-1.0264 1.1252 0.31478 1.0753 0.81124 1.564 2.4126 3.6708 4.9212 5.3389 7.0864 1.0831 0.49608-0.10599-1.0301-0.42626-1.4656-2.0221-2.1267-4.5482-4.4267-6.3052-6.632-0.47906-1.2343 1.346 1.2239 1.1486 1.6765 0.75902 2.7255 1.4207 4.9041 2.6115 7.6996 0.20564 0.25703 0.08924 0.37591 0.14688 0.46578-0.000696-0.2 0.34469-0.08298 0.38358 0.1132" style="opacity:.3"/>
  <path id="path1529" d="m50.932 97.57c0.73427-1.8322 0.77174-3.455 0.73809-5.1076-0.05974-1.9858-0.20317-3.7065 0.20869-5.4085 0.67953 1.0481-0.95771 2.8447-1.574 4.0996-0.6493 1.5678-1.7516 2.9694-2.5859 4.7891 0.42704 0.96413 1.6468-1.8893 1.7776-2.6706 0.76119-2.2737 1.3271-4.7697 2.2272-6.5852 0.40643 1.0446-2.1245 2.6111-2.736 3.7872-1.4911 1.4302-2.7461 2.9099-3.8959 4.2005 0.32563 1.2155 1.2997-1.6741 1.7325-1.9038 1.6229-1.9668 2.874-4.5422 4.4697-6.2772-0.01228 1.2683-2.3143 1.5799-3.4947 2.5374-1.6881 0.74054-3.5563 1.9461-4.9986 3.2463 0.89976 0.88404 2.1925-1.6949 3.2605-1.9526 1.5592-1.4888 3.5675-2.2977 5.361-3.659-0.48945 0.80316-2.9694 0.35415-4.19 0.99246-1.6185 0.32415-3.7872 1.2831-5.4026 1.7182-0.26098 1.2592 2.6758-0.96301 3.3194-1.0098 1.8867-0.70321 4.0666-1.4845 6.122-2.2221-0.79362 1.0073-2.9409 0.31466-4.0603 0.31656-1.9117-0.36915-4.1016-0.08793-5.8243-0.16813-0.45703 0.79922 1.6901-0.14251 2.3008 0.08713 2.5539 0.04535 5.2013-0.35234 7.7341-0.04571-0.74487 0.6559-3.1641-0.98711-4.2856-1.2032-1.5791-0.66961-3.4005-1.3423-5.4076-1.979-0.007 0.95719 2.2969 1.0445 3.3191 1.3562 2.3612 0.55097 4.7034 0.54516 6.6124 1.3316-0.85136 0.27234-2.6582-1.4691-3.9708-2.1186-1.4146-0.99885-2.3978-2.6644-4.1699-3.6462-1.134 0.17552 1.2762 1.3711 1.5576 1.6155 1.9731 1.2963 4.4793 2.9051 6.6709 4.2942-0.94891 0.14978-2.4518-2.4878-3.1035-3.483-1.2102-1.5991-2.0397-3.2823-3.0157-4.6934-1.1326-0.12153 1.3214 2.6671 1.6571 3.1617 1.3329 1.7391 3.2552 3.1584 4.3605 4.9673-1.2125-0.26578-1.2565-2.9897-1.6883-4.0184-0.40657-1.9674-1.0462-3.8989-1.8598-5.4631-0.9676-0.49069 0.63296 1.4628 0.71073 2.1769 0.95439 2.4563 1.9734 4.5167 3.0012 6.9734-0.68643-0.59488 0.09176-2.6873-0.10341-4.186 0.03416-2.0827-0.14524-3.7888-0.46398-5.52-0.9702-0.40287-0.09565 2.0497-0.23283 2.4832 0.545 2.4776 0.86826 5.0973 1.1462 7.5561-0.83027-0.77457 0.72168-3.2959 0.76919-4.6606 0.77244-1.7253 1.203-3.3608 1.4275-5.3283-0.64648-0.62188-0.95038 1.8767-0.94362 2.3091-0.41286 2.7-0.40141 5.2775-0.90244 7.6-0.17913-1.091 1.49-2.6893 1.9738-4.0174 1.2807-1.5393 1.9376-2.9658 2.9843-4.7606-0.21874-1.0401-1.15 1.4943-1.6596 1.9396-1.2081 2.4456-2.352 4.9269-3.5598 6.9307-0.18421-1.2467 2.3088-1.8727 3.1657-3.0133 1.5528-0.98414 3.0678-2.6403 4.6327-3.9702-1.0181-0.73477-1.8802 1.6987-2.6858 2.4408-1.7117 1.6585-3.4004 3.3308-4.9233 4.8899 0.29594-1.2538 2.937-1.9374 4.0136-2.3809 1.6524-0.83701 3.5229-1.2856 5.0051-2.1072 0.40449-0.97032-1.7696 0.68189-2.1029 0.95237-2.1834 1.4352-4.572 2.6965-6.6951 3.6769 0.55463-0.72393 2.8474-0.66987 4.1346-1.1247 1.721 0.01483 3.7799-0.32138 5.5302-0.46996 0.3167-0.96997-1.3863 0.08481-2.1537 0.15256-2.6492 0.43613-5.0614 1.2916-7.4242 1.4558 0.65366-0.61703 2.6056 0.463 3.9947 0.41356 1.8263 0.2467 3.8074 1.0567 5.5356 1.1659 0.92795-0.86308-1.6047-0.19355-2.107-0.5011-2.3402-0.31004-4.9843-0.40631-7.5285-1.0704 1.1746-0.37737 2.6681 1.4459 3.7704 2.1282 1.7995 1.0324 3.0851 1.8838 4.8452 2.4668 1.0553-0.65662-1.0029-0.9968-1.7005-1.2535-2.4413-0.77642-4.9078-2.1681-7.2842-3.2065 1.2646 0.0084 2.0433 2.3547 3.2532 3.1668 1.2532 1.2277 3.1148 2.8769 4.3891 4.0333 0.6064-0.92553-2.0105-1.9374-2.429-2.781-1.9244-1.4589-3.2966-2.4559-5.0671-4.0104 1.0813-0.02535 1.2511 2.4189 1.929 3.7015 0.6366 1.5286 1.6825 2.8143 2.6328 4.5987 1.3152 0.13204-0.68621-2.0135-1.233-2.6295-1.3375-1.9962-2.5363-3.6865-3.7287-5.5487 1.1283 0.63906 0.58073 2.4838 1.0776 3.9025 0.08807 1.9987 0.40996 4.1474 1.0863 6.0306 0.77646-0.64657-0.10402-2.4177-0.29897-3.5794-0.51498-1.9739-1.5484-4.3973-1.7846-6.4755 0.95859 0.65949-0.54748 3.1586-0.39364 4.3696-0.19265 1.888-0.94331 4.2161-0.8721 6.0949-0.0501-0.19362 0.15692-0.26962 0.33456-0.17774-0.18089-0.08531-0.32075 0.35643-0.24764 0.17027 0.19095 0.05949 0.05362-0.0058 0.16305-0.17319" style="opacity:.1"/>
 </g>
 <path id="path1531" d="m56.64 47.94a5.7325 5.7325 0 0 1 -11.465 0 5.7325 5.7325 0 1 1 11.465 0z" style="fill:url(#radialGradient20222)"/>
 <path id="path1533" d="m-178.49 967.36s7.9088-5.1807 17.173-4.1669c19.442 2.1276 36.997 13.132 42.048 25.38" style="filter:url(#filter3756);stroke:url(#radialGradient20250);fill:none" transform="matrix(1.227 0 0 1.227 227.78 -1157.9)"/>
 <path id="path1535" d="m75.04 53.34c0.72836 6.2756-1.3994 7.9876-9.356 9.5093 6.3532-0.608 11.032-1.8728 11.733-2.7608 0 0-0.35305-3.11-2.3773-6.7485z" style="fill:url(#linearGradient20216)"/>
 <use id="use1537" xlink:href="#SVGCleanerId_1" transform="translate(0,-956.36)" height="100%" width="100%" y="0" x="0"/>
 <use id="use1539" xlink:href="#SVGCleanerId_1" transform="translate(0,-956.36)" height="100%" width="100%" y="0" x="0"/>
 <path id="path1541" d="m24.502 32.52c-1.7551 0.1622-2.569 0.46013-2.569 0.46013 0.0752 0.31041 0.15163 0.61219 0.23006 0.92026 0.31614-0.049 0.68757-0.11411 1.112-0.15338 0.011-0.001 0.0271 0.001 0.0384 0 3.8137 14.825 11.42 26.871 29.065 28.528 9.9013 0.9299 20.842-0.5435 25.729-1.9172 0.74763-0.2634 1.2792-0.5032 1.4571-0.7286 0 0-0.17728-0.3747-0.23007-0.4984-4.8872 1.3737-15.828 2.8471-25.729 1.9172-17.645-1.6572-25.251-13.703-29.065-28.528-0.011 0.001-0.0271-0.001-0.0384 0z" style="opacity:.2"/>
 <g id="g14291">
  <path id="path64" style="opacity:.4;fill:url(#linearGradient14237)" d="m5.2923 73.685v5.0663c0 6.668 5.3645 12.032 12.032 12.032h61.049c6.668 0 12.032-5.3645 12.032-12.032v-5.0663c0 6.6681-5.3645 12.032-12.032 12.032h-61.049c-6.668 0-12.032-5.3643-12.032-12.032z"/>
  <path id="path14214" d="m5.293 72.718v1.1504c0 6.6677 5.3633 12.031 12.031 12.031h61.049c6.6675 0 12.031-5.3631 12.031-12.031v-1.1504c0 6.6681-5.3638 12.031-12.031 12.031h-61.049c-6.668 0-12.031-5.3636-12.031-12.031z" style="opacity:.5;fill:url(#linearGradient14245)"/>
 </g>
</svg>
