<?xml version="1.0" encoding="UTF-8" standalone="no"?>
<svg id="svg4148" xmlns:rdf="http://www.w3.org/1999/02/22-rdf-syntax-ns#" xmlns="http://www.w3.org/2000/svg" height="19pt" width="19pt" version="1.1" xmlns:cc="http://creativecommons.org/ns#" xmlns:dc="http://purl.org/dc/elements/1.1/" viewBox="0 0 19 19">
 <metadata id="metadata4163">
  <rdf:RDF>
   <cc:Work rdf:about="">
    <dc:format>image/svg+xml</dc:format>
    <dc:type rdf:resource="http://purl.org/dc/dcmitype/StillImage"/>
   </cc:Work>
  </rdf:RDF>
 </metadata>
 <g id="surface1" style="fill:#ccc" transform="matrix(.77315 0 0 .77315 -24.493 2.155)">
  <path id="path4151" style="fill-opacity:.50196;fill:#ccc" d="m9.5 2.375c-4.1445 0-7.6875 1.5469-9.3125 3.7852l1.3359 1.4843c1.3633-1.9257 4.4336-3.2656 7.9766-3.2656s6.6133 1.3398 7.9766 3.2656l1.335-1.4843c-1.624-2.2383-5.167-3.7852-9.312-3.7852z"/>
  <path id="path4153" style="fill-opacity:.90196;fill:#ccc" d="m9.5 6.3086c-2.8008 0-5.25 1.0664-6.7891 2.6719l1.2227 1.3711c1.3203-1.2387 3.3203-2.0395 5.5664-2.0395s4.2461 0.80078 5.5664 2.0391l1.223-1.3715c-1.539-1.6055-3.988-2.6719-6.789-2.6719z"/>
  <path id="path4155" style="fill-opacity:.90196;fill:#ccc" d="m9.5 10.094c-1.7031 0-3.2656 0.56641-4.4922 1.4844l1.2656 1.4102c0.9258-0.554 2.0391-0.89 3.2266-0.89s2.3008 0.33594 3.2266 0.89062l1.2656-1.4102c-1.227-0.919-2.79-1.485-4.493-1.485z"/>
  <path id="path4157" style="fill-opacity:.90196;fill:#ccc" d="m9.5 13.992c-1.2461-0.008-1.7344 0.383-1.8555 0.481 0.0664 0.058 1.8555 2.152 1.8555 2.152s1.7734-2.0742 1.8555-2.1523c-0.094-0.094-0.629-0.477-1.856-0.481z"/>
 </g>
 <path id="path13333" style="fill:#ccc;fill-rule:evenodd" d="m4.8074 9.0097 4.6121 5.2833 4.7735-5.2833c-2.8209-2.236-6.4643-2.3407-9.3852 0z"/>
 <path id="path4168" style="fill:#ccc" d="m9.5 4.1c-4.876 0-7.2 2.7-7.2 2.7l7.2 8.1 7.2-8.1s-2.265-2.7-7.2-2.7zm0 0.9c3.9079 0 5.85 2.025 5.85 2.025l-5.85 6.525-5.85-6.525s1.9895-2.025 5.85-2.025z"/>
</svg>
