<?xml version="1.0" encoding="UTF-8" standalone="no"?>
<svg id="svg2" xmlns:rdf="http://www.w3.org/1999/02/22-rdf-syntax-ns#" xmlns="http://www.w3.org/2000/svg" height="96" width="96" version="1.1" xmlns:cc="http://creativecommons.org/ns#" xmlns:xlink="http://www.w3.org/1999/xlink" xmlns:dc="http://purl.org/dc/elements/1.1/">
 <metadata id="metadata61">
  <rdf:RDF>
   <cc:Work rdf:about="">
    <dc:format>image/svg+xml</dc:format>
    <dc:type rdf:resource="http://purl.org/dc/dcmitype/StillImage"/>
   </cc:Work>
  </rdf:RDF>
 </metadata>
 <defs id="defs4">
  <linearGradient id="linearGradient4396" y2="-48" gradientUnits="userSpaceOnUse" x2="90.5" y1="-48" x1="5.5">
   <stop id="stop4400" style="stop-color:#3eadf3" offset="0"/>
   <stop id="stop4402" style="stop-color:#046bab" offset="1"/>
  </linearGradient>
  <linearGradient id="linearGradient14237" y2="96.54" gradientUnits="userSpaceOnUse" x2="50.708" y1="81.682" x1="50.708">
   <stop id="stop14233" offset="0"/>
   <stop id="stop14235" style="stop-opacity:0" offset="1"/>
  </linearGradient>
  <linearGradient id="linearGradient14245" y2="76.72" gradientUnits="userSpaceOnUse" x2="49.877" y1="87.938" x1="49.877">
   <stop id="stop14241" style="stop-color:#fff" offset="0"/>
   <stop id="stop14243" style="stop-color:#fff;stop-opacity:0" offset="1"/>
  </linearGradient>
  <filter id="filter11665" style="color-interpolation-filters:sRGB" height="1.0695" width="1.0367" y="-.034728" x="-.018336">
   <feGaussianBlur id="feGaussianBlur11667" stdDeviation="0.41456721"/>
  </filter>
 </defs>
 <rect id="rect4262" style="opacity:.1" rx="11.846" transform="rotate(90)" height="88" width="88" y="-92" x="4"/>
 <rect id="rect4260" style="opacity:.1" rx="11.711" transform="rotate(90)" height="87" width="87" y="-91.5" x="4.5"/>
 <rect id="rect4258" style="opacity:.1" rx="11.577" transform="rotate(90)" height="86" width="86" y="-91" x="5"/>
 <rect id="rect4193" style="fill:url(#linearGradient4396)" rx="11.442" transform="rotate(90)" height="85" width="85" y="-90.5" x="5.5"/>
 <g id="g11691" transform="translate(-1.2423)">
  <rect id="rect4197" style="fill:#003380" transform="scale(-1)" height="7.0201" width="63.75" y="-50.494" x="-81.117"/>
  <rect id="rect4199" style="fill:#025" transform="scale(-1,1)" height="3.0433" width="63.75" y="40.431" x="-81.117"/>
  <g id="g11677" transform="matrix(.99703 0 0 1.1719 -1.0961 -8.5635)">
   <rect id="rect11679" style="opacity:0.548;filter:url(#filter11665)" transform="scale(-1)" height="28.65" width="54.264" y="-50.494" x="-76.374"/>
   <rect id="rect11681" style="fill:#fff" transform="scale(-1)" height="28.65" width="54.264" y="-50.494" x="-76.374"/>
   <rect id="rect11683" style="opacity:0.389" transform="scale(1,-1)" height="1.8973" width="40.223" y="-42.829" x="29.131"/>
   <rect id="rect11685" style="opacity:0.389" transform="scale(1,-1)" height="1.8973" width="40.223" y="-38.275" x="29.131"/>
   <rect id="rect11687" style="opacity:0.389" transform="scale(1,-1)" height="1.8973" width="40.223" y="-33.722" x="29.131"/>
   <rect id="rect11689" style="opacity:0.389" transform="scale(1,-1)" height="1.8973" width="40.223" y="-47.381" x="29.131"/>
  </g>
  <g id="g11669" transform="translate(2)">
   <rect id="rect10855" style="opacity:0.548;filter:url(#filter11665)" transform="scale(-1)" height="28.65" width="54.264" y="-50.494" x="-76.374"/>
   <rect id="rect4201" style="fill:#fff" transform="scale(-1)" height="28.65" width="54.264" y="-50.494" x="-76.374"/>
   <rect id="rect4203" style="opacity:0.389" transform="scale(1,-1)" height="1.8973" width="40.223" y="-42.829" x="29.131"/>
   <rect id="rect4205" style="opacity:0.389" transform="scale(1,-1)" height="1.8973" width="40.223" y="-38.275" x="29.131"/>
   <rect id="rect4207" style="opacity:0.389" transform="scale(1,-1)" height="1.8973" width="40.223" y="-33.722" x="29.131"/>
   <rect id="rect4209" style="opacity:0.389" transform="scale(1,-1)" height="1.8973" width="40.223" y="-47.381" x="29.131"/>
  </g>
  <rect id="rect4211" style="fill:#59f" transform="scale(-1,1)" height="2.9075" width="63.75" y="50.494" x="-81.117"/>
  <g id="g4213" transform="matrix(.75893 0 0 .75893 12.376 9.655)">
   <rect id="rect4215" style="fill:#8cafba" height="15.548" width="41.492" y="66.58" x="27.824"/>
   <rect id="rect4217" style="fill:#7398a3" height="2.305" width="41.492" y="82.12" x="27.824"/>
   <rect id="rect4219" style="opacity:0.855;fill:#fff" height="2.305" width="41.492" y="66.58" x="27.824"/>
  </g>
 </g>
 <g id="g14291">
  <path id="path64" style="opacity:.4;fill:url(#linearGradient14237)" d="m5.2923 73.685v5.0663c0 6.668 5.3645 12.032 12.032 12.032h61.049c6.668 0 12.032-5.3645 12.032-12.032v-5.0663c0 6.6681-5.3645 12.032-12.032 12.032h-61.049c-6.668 0-12.032-5.3643-12.032-12.032z"/>
  <path id="path14214" d="m5.293 72.718v1.1504c0 6.6677 5.3633 12.031 12.031 12.031h61.049c6.6675 0 12.031-5.3631 12.031-12.031v-1.1504c0 6.6681-5.3638 12.031-12.031 12.031h-61.049c-6.668 0-12.031-5.3636-12.031-12.031z" style="opacity:.5;fill:url(#linearGradient14245)"/>
 </g>
</svg>
